<svg width="190" height="41" viewBox="0 0 190 41" fill="none" xmlns="http://www.w3.org/2000/svg">
<path fill-rule="evenodd" clip-rule="evenodd" d="M96 37.1446C96 37.1446 97.1231 36.6231 99.093 35.9212C100.108 36.3863 102.332 37.3551 104.486 37.9513C107.402 38.7579 109.345 38.6337 112.066 38.6337C114.787 38.6337 118.674 38.1994 118.674 38.1994C118.674 38.1994 118.091 36.1517 118.026 34.6623C117.961 33.1726 117.961 32.9245 117.961 32.9245C117.961 32.9245 117.378 35.0346 117.508 36.1517C117.637 37.2685 117.637 37.6411 117.637 37.6411C117.637 37.6411 112.519 38.1376 108.892 37.765C105.264 37.3927 103.061 37.0201 101.507 36.524C100.65 36.2502 99.8328 36.0147 99.2716 35.8579C102.02 34.8886 106.321 33.6043 111.483 32.8627C120.552 31.5593 118.738 31.9936 118.738 31.9936C118.738 31.9936 118.933 31.6214 120.098 31.4975C121.265 31.3733 133.184 30.8147 136.877 31.0628C140.57 31.3109 150.74 31.8077 152.23 32.7385C153.72 33.6693 154.303 34.6002 153.85 36.8962C153.396 39.1926 152.49 41.4268 151.647 40.9301C150.805 40.4336 147.955 38.3239 145.234 37.9513C142.513 37.579 139.533 37.6411 138.302 37.9513C137.071 38.2618 134.998 39.5028 134.027 39.1926C133.055 38.8824 131.112 37.1446 129.557 37.7653C128.002 38.3859 127.937 38.5719 127.225 39.4407C126.512 40.3097 125.54 41.3027 124.763 40.3718C123.985 39.4407 122.56 39.0063 121.329 38.9442C120.099 38.8824 118.997 39.2547 118.674 39.5649C118.35 39.8754 117.896 40.4957 117.896 40.4957C117.896 40.4957 115.888 39.9996 113.556 40.2476C111.224 40.4957 107.207 40.682 104.486 40.1855C101.766 39.6891 96 37.1446 96 37.1446ZM120.487 37.8892C120.487 37.8892 123.079 37.4548 124.051 38.1373C125.022 38.82 125.216 39.3786 126.966 38.0134C128.715 36.6479 129.816 35.6549 131.76 36.6479C133.703 37.6411 134.61 38.2615 136.489 37.3306C138.367 36.3998 142.449 35.4068 145.882 36.7721C149.315 38.1373 151.972 40.3094 152.49 38.9442C153.008 37.5787 153.267 36.0893 150.611 35.531C147.955 34.9725 144.003 34.3518 140.376 34.9104C136.748 35.4689 136.1 37.0822 134.61 36.6479C133.12 36.2135 131.501 34.9104 129.687 35.5928C127.873 36.2756 126.318 38.3856 124.828 37.7029C123.338 37.0204 122.301 36.3998 121.395 36.8342C120.487 37.2685 120.487 37.8892 120.487 37.8892Z" fill="#1F1C21"/>
<path d="M1.95714 0.338259V9.87049H2.40109C2.43539 9.32408 2.52082 8.7718 2.6633 8.21984C2.79985 7.66203 2.97631 7.12705 3.1986 6.61425C3.41497 6.107 3.66563 5.64539 3.95028 5.22818C4.22962 4.81714 4.53703 4.48442 4.8622 4.22509C5.10133 4.02836 5.40874 3.84212 5.79034 3.66204C6.17195 3.48165 6.62776 3.33518 7.15746 3.22263C7.69308 3.10422 8.3026 3.0478 8.99722 3.04225H16.2428L1 23.7971L1.06828 24H23.1126V13.0478H22.6683C22.634 13.6679 22.5711 14.2985 22.48 14.9352C22.3834 15.572 22.2524 16.1918 22.0816 16.7943C21.9048 17.3972 21.6825 17.955 21.4094 18.4733C21.136 18.9861 20.8055 19.4311 20.4124 19.8085C19.917 20.2649 19.3929 20.5973 18.846 20.8116C18.2936 21.0256 17.7467 21.1607 17.194 21.2171C16.6474 21.2791 16.1233 21.3013 15.6276 21.2957H8.10868L23.2834 0.540859L23.1126 0.338259H1.95714ZM29.9821 20.2143C29.9878 20.49 29.9765 20.7718 29.9425 21.0648C29.9139 21.3577 29.8341 21.6506 29.7146 21.9325C29.5949 22.2143 29.3954 22.4789 29.1279 22.7157C28.8713 22.9239 28.587 23.0876 28.2618 23.1946C27.9432 23.3075 27.6127 23.3861 27.271 23.4311C26.929 23.4761 26.6044 23.5097 26.2911 23.527L25.7103 23.5606V24H49.7022V13.7237H49.2579L49.1557 14.7721C49.1043 15.3296 49.0244 15.8819 48.9222 16.445C48.8137 17.0028 48.6428 17.5436 48.3981 18.0675C48.1587 18.5973 47.8057 19.0817 47.3443 19.5381C47.2018 19.6846 46.9911 19.8594 46.7177 20.0561C46.4439 20.2535 46.0969 20.4453 45.6695 20.6309C45.2424 20.8227 44.7295 20.9803 44.1315 21.1045C43.5332 21.2282 42.8386 21.2902 42.0467 21.2957H34.22V4.12394C34.2144 3.92659 34.2256 3.67899 34.2602 3.38605C34.2886 3.09311 34.3681 2.78878 34.4878 2.47333C34.6135 2.15757 34.8068 1.87635 35.0746 1.62258C35.3196 1.40858 35.6043 1.25068 35.9289 1.14399C36.2596 1.03113 36.5954 0.95221 36.943 0.906882C37.2847 0.86217 37.6096 0.828233 37.9114 0.811273L38.4925 0.777667V0.338259H25.7103V0.777667L26.2911 0.811273C26.5932 0.828233 26.9178 0.86217 27.2654 0.906882C27.6068 0.95221 27.9432 1.03113 28.2733 1.14399C28.5982 1.25068 28.8831 1.40858 29.1279 1.62258C29.3954 1.87635 29.5949 2.15757 29.7146 2.47333C29.8341 2.78878 29.9139 3.09311 29.9425 3.38605C29.9765 3.67899 29.9878 3.92659 29.9821 4.12394V20.2143ZM62.3136 0L54.863 17.7805C54.6126 18.3605 54.3847 18.8563 54.1796 19.2621C53.9744 19.6676 53.798 20.0059 53.6442 20.276C53.4902 20.5409 53.3593 20.7552 53.257 20.9238C53.1485 21.1045 52.9948 21.3241 52.8068 21.572C52.6188 21.8196 52.3797 22.0734 52.0891 22.3324C51.8042 22.5862 51.4628 22.8172 51.0581 23.0201C50.6594 23.2227 50.1979 23.3691 49.6682 23.4595L49.0188 23.5606V24H61.2886V23.5606L60.434 23.4931C60.0982 23.4706 59.739 23.4141 59.3574 23.3241C58.9758 23.234 58.617 23.0931 58.275 22.9072C57.9336 22.7213 57.6486 22.4789 57.4267 22.1746C57.244 21.9214 57.1189 21.6229 57.045 21.2735C56.9765 20.9297 56.9534 20.5745 56.988 20.2088C57.016 19.8483 57.0959 19.51 57.2215 19.2001L58.5203 16.0564H67.2695L68.8075 19.7749C68.8985 19.9831 68.9727 20.2088 69.041 20.4564C69.1093 20.7098 69.1433 20.9525 69.1492 21.1946C69.1433 21.696 69.0466 22.0959 68.853 22.3888C68.665 22.6873 68.42 22.9072 68.1241 23.0537C67.9698 23.1437 67.7821 23.2168 67.5657 23.2732C67.3491 23.3297 67.0875 23.3805 66.7682 23.4197C66.4493 23.4595 66.0561 23.4931 65.595 23.527L65.0822 23.5606V24H78.4798V23.5606L77.9327 23.527C77.5283 23.5042 77.1293 23.4366 76.7364 23.3241C76.3436 23.2168 75.9844 23.0759 75.6543 22.9072C75.3182 22.7382 75.0445 22.5464 74.8225 22.3441C74.6233 22.1468 74.4293 21.8875 74.2473 21.572C74.0593 21.251 73.8541 20.8283 73.6206 20.2988C73.3927 19.7749 73.1077 19.1045 72.7719 18.2874L65.219 0H62.3136ZM66.4153 13.6901H59.3746L62.8608 5.37465H62.9291L66.4153 13.6901ZM88.8013 3.04225H91.3304C91.5296 3.0367 91.7806 3.0478 92.0824 3.07062C92.3842 3.09313 92.7087 3.13815 93.062 3.21709C93.4152 3.29017 93.7681 3.40827 94.1213 3.56646C94.4802 3.72989 94.8107 3.94942 95.124 4.22509C95.409 4.48442 95.6652 4.82823 95.8987 5.26209C96.1263 5.69564 96.3318 6.17482 96.5023 6.69872C96.6791 7.22817 96.8213 7.76379 96.9298 8.30434C97.0377 8.8452 97.1062 9.35769 97.1405 9.83688H97.5848V0.338259H75.7799V9.83688H76.2242C76.2582 9.35769 76.3321 8.8452 76.4406 8.30434C76.5432 7.76379 76.6853 7.22817 76.8618 6.69872C77.0329 6.17482 77.2378 5.69564 77.4716 5.26209C77.6995 4.82823 77.9558 4.48442 78.2404 4.22509C78.5537 3.94942 78.8842 3.72989 79.2428 3.56646C79.5963 3.40827 79.9495 3.29017 80.3028 3.21709C80.6557 3.13815 80.9806 3.09313 81.2824 3.07062C81.5842 3.0478 81.8348 3.0367 82.0344 3.04225H84.5634V20.2143C84.569 20.4114 84.5578 20.6593 84.5232 20.9525C84.4948 21.2454 84.4153 21.5495 84.2956 21.865C84.1762 22.1746 83.9767 22.4619 83.7089 22.7157C83.4638 22.9239 83.1792 23.0876 82.8546 23.1946C82.5238 23.3075 82.1881 23.3805 81.846 23.4311C81.4987 23.4761 81.1739 23.5042 80.8721 23.527L80.2909 23.5606V24H93.0732V23.5606L92.4924 23.527C92.1902 23.5042 91.8657 23.4761 91.524 23.4311C91.1767 23.3805 90.8403 23.3075 90.5101 23.1946C90.1853 23.0876 89.9009 22.9239 89.6555 22.7157C89.388 22.4619 89.1941 22.1746 89.0688 21.865C88.9494 21.5495 88.8696 21.2454 88.8409 20.9525C88.8069 20.6593 88.7957 20.4114 88.8013 20.2143V3.04225ZM132.343 0.338259H122.09L115.699 16.3947H115.596L109.205 0.338259H98.5419V0.777667L99.1231 0.811273C99.4249 0.828233 99.7494 0.86217 100.097 0.906882C100.438 0.95221 100.775 1.03113 101.105 1.14399C101.43 1.25068 101.715 1.40858 101.96 1.62258C102.227 1.87635 102.427 2.15757 102.546 2.47333C102.666 2.78878 102.746 3.09311 102.774 3.38605C102.808 3.67899 102.819 3.92659 102.814 4.12394V19.5381C102.819 19.7974 102.803 20.1126 102.769 20.4844C102.734 20.8563 102.655 21.2337 102.529 21.6115C102.41 21.9889 102.216 22.3099 101.96 22.5807C101.738 22.7947 101.453 22.9692 101.117 23.1045C100.78 23.2396 100.433 23.3411 100.08 23.4086C99.7211 23.4761 99.4021 23.5156 99.1231 23.527L98.5419 23.5606V24H110.06V23.5606L109.479 23.527C109.199 23.5156 108.881 23.4761 108.522 23.4086C108.168 23.3411 107.821 23.2396 107.485 23.1045C107.149 22.9692 106.864 22.7947 106.642 22.5807C106.437 22.3719 106.277 22.1298 106.163 21.848C106.044 21.5664 105.959 21.2791 105.907 20.9803C105.856 20.6873 105.822 20.4114 105.805 20.1579C105.793 19.8986 105.787 19.696 105.787 19.5381V3.61702H105.89L114.024 24H115.596L123.73 3.61702H123.833V20.2143C123.839 20.4114 123.827 20.6593 123.793 20.9525C123.765 21.2454 123.691 21.5495 123.565 21.865C123.446 22.1746 123.246 22.4619 122.978 22.7157C122.734 22.9239 122.449 23.0876 122.124 23.1946C121.794 23.3075 121.458 23.3805 121.116 23.4311C120.768 23.4761 120.444 23.5042 120.142 23.527L119.561 23.5606V24H132.343V23.5606L131.762 23.527C131.46 23.5042 131.136 23.4761 130.794 23.4311C130.446 23.3805 130.11 23.3075 129.786 23.1946C129.455 23.0876 129.17 22.9239 128.925 22.7157C128.657 22.4619 128.464 22.1746 128.338 21.865C128.219 21.5495 128.139 21.2454 128.111 20.9525C128.082 20.6593 128.065 20.4114 128.071 20.2143V4.12394C128.065 3.92659 128.082 3.67899 128.111 3.38605C128.139 3.09311 128.219 2.78878 128.338 2.47333C128.464 2.15757 128.657 1.87635 128.925 1.62258C129.17 1.40858 129.455 1.25068 129.786 1.14399C130.11 1.03113 130.446 0.95221 130.794 0.906882C131.136 0.86217 131.46 0.828233 131.762 0.811273L132.343 0.777667V0.338259ZM144.886 0L137.435 17.7805C137.185 18.3605 136.957 18.8563 136.752 19.2621C136.547 19.6676 136.37 20.0059 136.217 20.276C136.063 20.5409 135.932 20.7552 135.829 20.9238C135.721 21.1045 135.567 21.3241 135.379 21.572C135.191 21.8196 134.952 22.0734 134.661 22.3324C134.376 22.5862 134.035 22.8172 133.63 23.0201C133.232 23.2227 132.771 23.3691 132.241 23.4595L131.591 23.5606V24H143.861V23.5606L143.006 23.4931C142.671 23.4706 142.311 23.4141 141.93 23.3241C141.548 23.234 141.189 23.0931 140.847 22.9072C140.506 22.7213 140.221 22.4789 139.999 22.1746C139.816 21.9214 139.691 21.6229 139.617 21.2735C139.549 20.9297 139.526 20.5745 139.56 20.2088C139.589 19.8483 139.668 19.51 139.794 19.2001L141.093 16.0564H149.842L151.38 19.7749C151.471 19.9831 151.545 20.2088 151.613 20.4564C151.682 20.7098 151.716 20.9525 151.722 21.1946C151.716 21.696 151.619 22.0959 151.425 22.3888C151.237 22.6873 150.992 22.9072 150.696 23.0537C150.542 23.1437 150.354 23.2168 150.138 23.2732C149.921 23.3297 149.66 23.3805 149.341 23.4197C149.022 23.4595 148.629 23.4931 148.167 23.527L147.654 23.5606V24H161.052V23.5606L160.505 23.527C160.101 23.5042 159.702 23.4366 159.309 23.3241C158.916 23.2168 158.557 23.0759 158.227 22.9072C157.89 22.7382 157.617 22.5464 157.395 22.3441C157.196 22.1468 157.002 21.8875 156.82 21.572C156.632 21.251 156.426 20.8283 156.193 20.2988C155.965 19.7749 155.68 19.1045 155.344 18.2874L147.791 0H144.886ZM148.988 13.6901H141.947L145.433 5.37465H145.501L148.988 13.6901ZM159.822 0.338259V0.777667L160.471 0.913025C160.887 1.00862 161.314 1.18871 161.752 1.44804C162.191 1.70706 162.613 2.00554 163.017 2.34935C163.422 2.69317 163.781 3.0367 164.094 3.38021L171.989 12.0678L165.324 19.741C165.21 19.8819 165.045 20.0506 164.84 20.2535C164.635 20.4564 164.407 20.6707 164.168 20.8902C163.923 21.1101 163.695 21.313 163.473 21.4986C163.257 21.6849 163.074 21.8314 162.932 21.938C162.396 22.3269 161.815 22.6648 161.189 22.9411C160.568 23.2168 159.953 23.4255 159.343 23.5606V24H172.775V23.5606L171.954 23.4931C171.311 23.4366 170.815 23.3632 170.462 23.2791C170.115 23.1887 169.881 23.1267 169.767 23.0876C169.522 22.9972 169.294 22.8847 169.078 22.7327C168.862 22.5862 168.679 22.4 168.543 22.1634C168.406 21.9325 168.338 21.6451 168.332 21.2957C168.338 21.0312 168.411 20.7552 168.548 20.4622C168.685 20.1693 168.839 19.8985 169.015 19.6509C169.192 19.403 169.34 19.2057 169.46 19.0648L173.8 14.062L178.482 19.1662C178.727 19.4255 178.955 19.696 179.172 19.9719C179.388 20.2535 179.57 20.5353 179.707 20.8283C179.843 21.1157 179.912 21.4086 179.918 21.7015C179.912 22.0339 179.821 22.3099 179.639 22.5298C179.462 22.7438 179.223 22.9183 178.927 23.0537C178.614 23.2057 178.249 23.3185 177.845 23.3919C177.44 23.465 177.036 23.5097 176.637 23.527L175.646 23.5606V24H190V23.5606C189.624 23.5156 189.214 23.4197 188.775 23.2732C188.331 23.1268 187.864 22.8958 187.368 22.5807C186.748 22.1523 186.144 21.6396 185.568 21.0312C184.993 20.428 184.383 19.7632 183.746 19.0312L176.466 10.9858L181.08 5.71291C181.41 5.33548 181.758 4.93525 182.122 4.50695C182.493 4.07864 182.885 3.66203 183.307 3.25624C183.723 2.85075 184.179 2.48472 184.668 2.1631C184.97 1.97192 185.301 1.78569 185.671 1.61146C186.041 1.43694 186.429 1.29046 186.833 1.16064C187.232 1.03113 187.625 0.935246 188.018 0.878817L188.701 0.777667V0.338259H174.962V0.777667L175.816 0.845211C176.443 0.895781 176.956 0.985794 177.355 1.10975C177.753 1.23402 178.061 1.38605 178.277 1.55503C178.528 1.74097 178.71 1.94387 178.813 2.16928C178.915 2.40024 178.967 2.65341 178.961 2.9408C178.955 3.27907 178.91 3.57753 178.813 3.84765C178.721 4.11284 178.608 4.34383 178.471 4.54673C178.334 4.74962 178.203 4.92413 178.072 5.0706L174.655 9.02561L169.802 3.68453C169.619 3.48163 169.488 3.30158 169.419 3.1437C169.351 2.98613 169.317 2.83966 169.323 2.70429C169.317 2.44497 169.38 2.1918 169.522 1.94388C169.659 1.69565 169.91 1.47611 170.28 1.28462C170.456 1.20537 170.662 1.13228 170.901 1.07061C171.14 1.00863 171.385 0.957757 171.63 0.918596C171.875 0.884677 172.097 0.85662 172.296 0.845211L173.082 0.777667V0.338259H159.822Z" fill="#1F1C21"/>
<path d="M0.492396 34.3181C0.639334 34.228 0.801898 34.1459 0.979786 34.0692C1.15767 33.9935 1.34557 33.9321 1.54315 33.886C1.7423 33.8387 1.94395 33.8155 2.14747 33.8134C2.43134 33.8134 2.67958 33.8613 2.89092 33.955C3.10414 34.0503 3.26826 34.188 3.38738 34.3696C3.50493 34.5531 3.56558 34.7763 3.56777 35.0401C3.56558 35.2389 3.51868 35.4239 3.4227 35.5961C3.3286 35.7677 3.19574 35.9167 3.02567 36.0468C2.85747 36.1765 2.65987 36.2779 2.4329 36.3506C2.20843 36.4229 1.96364 36.4596 1.70134 36.4614H1.24366V37.218H1.71292C1.91706 37.218 2.12027 37.2314 2.32348 37.2616C2.52857 37.2903 2.72272 37.3398 2.90655 37.4085C3.0885 37.4778 3.25263 37.5694 3.3955 37.6836C3.53837 37.7984 3.65187 37.9398 3.73378 38.1077C3.81788 38.2759 3.85914 38.4768 3.86101 38.7079C3.86101 38.9922 3.79067 39.2447 3.65186 39.4642C3.51087 39.6859 3.30734 39.8578 3.03973 39.9839C2.7693 40.1081 2.44292 40.1729 2.05338 40.1753C1.83297 40.1729 1.6135 40.15 1.39622 40.106C1.17738 40.062 0.971661 40.0046 0.78033 39.9344C0.586185 39.8636 0.41643 39.787 0.269493 39.7048L0 40.4846C0.308568 40.6602 0.639342 40.7899 0.993555 40.8705C1.34714 40.9502 1.70541 40.9908 2.06556 40.9887C2.35693 40.9887 2.64049 40.9621 2.91811 40.9081C3.19791 40.8547 3.45771 40.7725 3.70094 40.6602C3.94511 40.5475 4.15833 40.4025 4.34434 40.2263C4.52973 40.0486 4.67479 39.8389 4.78015 39.5925C4.88582 39.3461 4.93867 39.063 4.94054 38.7424C4.93304 38.3693 4.84644 38.0469 4.67824 37.7722C4.51004 37.4971 4.28308 37.2754 3.9942 37.1111C3.70439 36.9469 3.37612 36.8455 3.0044 36.8049V36.7826C3.31328 36.7115 3.58902 36.5872 3.83318 36.4116C4.07829 36.2358 4.27401 36.0181 4.41626 35.7579C4.55913 35.4987 4.63166 35.2102 4.63573 34.8911C4.63166 34.4918 4.5338 34.1514 4.3384 33.8708C4.1427 33.5902 3.87259 33.374 3.52463 33.225C3.17604 33.0763 2.77336 33.0015 2.3116 33C1.87955 33.0015 1.49 33.0574 1.14392 33.1618C0.800022 33.2693 0.492393 33.4082 0.222903 33.5844L0.492396 34.3181ZM6.85354 33.1371V36.3927C6.85573 36.7038 6.84946 37.025 6.83383 37.3536C6.82008 37.6821 6.79069 37.9993 6.74568 38.3065C6.69909 38.6142 6.63032 38.8915 6.53653 39.1397C6.44274 39.3876 6.31767 39.5867 6.16105 39.7393C6.06319 39.8331 5.94221 39.9186 5.7934 39.9973C5.64427 40.074 5.48983 40.1253 5.32758 40.1521L5.45669 40.9542C5.61144 40.9527 5.76182 40.9353 5.91282 40.8993C6.06132 40.8644 6.20201 40.8186 6.33331 40.7631C6.464 40.7078 6.57748 40.6504 6.67721 40.5875C6.89668 40.4385 7.07863 40.2495 7.22494 40.022C7.37 39.7928 7.48536 39.5351 7.57102 39.2487C7.65762 38.9601 7.72203 38.6539 7.76298 38.3294C7.80613 38.0027 7.83332 37.6708 7.8452 37.3288C7.85896 36.9866 7.8649 36.6486 7.86271 36.3121V33.9743H10.4685V40.8626H11.5011V33.1371H6.85354ZM17.3577 38.4329L18.2027 40.8626H19.2941L16.5949 33.1371H15.3743L12.6748 40.8626H13.7311L14.5524 38.4329H17.3577ZM14.7638 37.6534L15.5385 35.4184C15.6204 35.1815 15.6929 34.9464 15.7558 34.7095C15.8202 34.4744 15.8808 34.2432 15.9377 34.0198H15.9608C16.0177 34.2414 16.0806 34.471 16.145 34.704C16.2097 34.9366 16.2857 35.1775 16.3713 35.4294L17.1582 37.6534H14.7638ZM21.9578 40.8626H22.9904V33.9856H25.4086V33.1371H19.5524V33.9856H21.9578V40.8626ZM29.4803 33C28.9504 33.0015 28.4615 33.0974 28.0175 33.2885C27.5714 33.4793 27.1862 33.7526 26.858 34.1077C26.5291 34.4649 26.2749 34.8912 26.0945 35.3879C25.9126 35.8865 25.821 36.4422 25.8188 37.0577C25.821 37.6436 25.9069 38.1764 26.0792 38.6579C26.2515 39.1379 26.4937 39.5519 26.8089 39.9002C27.124 40.2477 27.4995 40.5148 27.9334 40.7038C28.3677 40.8913 28.8469 40.9869 29.375 40.9887C29.7801 40.9887 30.1672 40.9313 30.533 40.8186C30.8987 40.7078 31.2354 40.5396 31.5403 40.3182C31.8457 40.0966 32.1117 39.8236 32.3362 39.4951C32.5616 39.1684 32.738 38.7901 32.8605 38.3599C32.9837 37.93 33.0465 37.4491 33.0484 36.9197C33.0465 36.3408 32.9624 35.8138 32.7961 35.3363C32.6301 34.8569 32.3909 34.4438 32.0783 34.0964C31.7672 33.7471 31.3918 33.4775 30.9538 33.2885C30.5173 33.0989 30.0249 33.0015 29.4803 33ZM29.4453 33.8134C29.7858 33.8155 30.0909 33.8747 30.3613 33.9935C30.633 34.1098 30.8675 34.2719 31.0691 34.4765C31.2708 34.6826 31.439 34.9199 31.5718 35.187C31.705 35.4545 31.8047 35.7411 31.871 36.0428C31.9354 36.3466 31.9689 36.6544 31.9689 36.9658C31.9689 37.407 31.9123 37.8216 31.8007 38.2075C31.6888 38.5935 31.5246 38.933 31.3098 39.2273C31.0926 39.5216 30.8284 39.7528 30.5133 39.921C30.1988 40.0868 29.8386 40.1714 29.4337 40.1753C29.1089 40.1729 28.8141 40.1179 28.5477 40.0086C28.2817 39.8978 28.0469 39.7448 27.8418 39.5485C27.6361 39.3516 27.4638 39.1204 27.325 38.8588C27.1843 38.595 27.0784 38.3086 27.0065 37.9993C26.9361 37.69 26.8986 37.3685 26.8986 37.0345C26.8986 36.6965 26.932 36.368 27.0008 36.0523C27.0668 35.7372 27.169 35.4432 27.3053 35.172C27.4407 34.9024 27.6108 34.6655 27.814 34.4615C28.0175 34.2588 28.2564 34.1003 28.5284 33.9871C28.8 33.8729 29.1049 33.8155 29.4453 33.8134ZM33.5061 33.1371L36.135 38.3639C36.1819 38.4539 36.2113 38.5321 36.2191 38.6029C36.2266 38.6732 36.2113 38.7498 36.1704 38.834C36.106 38.9736 36.0275 39.1204 35.9337 39.2713C35.8396 39.4242 35.7302 39.5653 35.6029 39.6993C35.4757 39.8331 35.3309 39.9399 35.1687 40.0239C35.0061 40.106 34.8223 40.15 34.6209 40.1521C34.5334 40.1521 34.459 40.15 34.3962 40.1442C34.3333 40.1387 34.2805 40.1289 34.2336 40.1179L34.1398 40.9313C34.2045 40.9542 34.2827 40.9716 34.3743 40.9829C34.4681 40.9942 34.5815 41 34.7147 41C35.0649 41 35.3881 40.92 35.6814 40.7612C35.9743 40.6009 36.2485 40.3643 36.4986 40.0486C36.6396 39.8691 36.7769 39.6667 36.9076 39.4377C37.0407 39.2081 37.168 38.9656 37.2911 38.7079C37.4146 38.45 37.5337 38.1862 37.6472 37.9187C37.7623 37.6494 37.872 37.3862 37.978 37.1261L39.6443 33.1371H38.5642L37.3205 36.4156C37.2267 36.6886 37.1404 36.9404 37.062 37.17C36.9841 37.3972 36.9094 37.6094 36.8391 37.8024H36.8041C36.7159 37.5792 36.6258 37.3551 36.5321 37.1301C36.4383 36.9063 36.3401 36.6791 36.2407 36.4501L34.6681 33.1371H33.5061ZM45.8054 39.8196C45.6666 39.8844 45.5081 39.9418 45.3283 39.9897C45.1482 40.0373 44.9569 40.074 44.753 40.1002C44.548 40.1274 44.3404 40.1402 44.1275 40.1402C43.4875 40.1369 42.942 40.0105 42.4921 39.7583C42.0422 39.5064 41.6977 39.1491 41.4592 38.685C41.2209 38.2225 41.1009 37.6723 41.0993 37.0345C41.1009 36.5258 41.1753 36.0755 41.3203 35.6798C41.4667 35.2865 41.6764 34.9519 41.9459 34.6808C42.2179 34.4075 42.5427 34.2014 42.9207 34.0598C43.2996 33.9187 43.7201 33.8482 44.1862 33.8482C44.5167 33.85 44.8156 33.8802 45.0835 33.9401C45.3521 33.999 45.5806 34.0756 45.77 34.1687L46.0283 33.3548C45.9382 33.3071 45.8076 33.2577 45.6372 33.2042C45.4671 33.1523 45.2583 33.1069 45.0116 33.0702C44.7628 33.0321 44.4754 33.0134 44.1503 33.0113C43.5347 33.0134 42.9754 33.1108 42.4702 33.3038C41.9656 33.4967 41.5314 33.7718 41.1656 34.1291C40.7998 34.4863 40.5181 34.9137 40.3206 35.4087C40.1211 35.9054 40.0217 36.4596 40.0192 37.0687C40.0232 37.705 40.1211 38.2665 40.3146 38.7553C40.5084 39.2426 40.7801 39.6514 41.1328 39.9824C41.4829 40.3142 41.8937 40.5646 42.3664 40.7344C42.8382 40.9026 43.3543 40.9887 43.9161 40.9887C44.2385 40.9869 44.5342 40.9695 44.8043 40.9353C45.0738 40.8992 45.313 40.8531 45.5162 40.7979C45.7194 40.7423 45.882 40.6849 46.0052 40.6217L45.8054 39.8196ZM48.7976 40.8626H49.8305V33.9856H52.2487V33.1371H46.3922V33.9856H48.7976V40.8626ZM56.3205 33C55.7905 33.0015 55.3016 33.0974 54.8573 33.2885C54.4115 33.4793 54.0264 33.7526 53.6978 34.1077C53.3689 34.4649 53.115 34.8912 52.9346 35.3879C52.7527 35.8865 52.6611 36.4422 52.6589 37.0577C52.6611 37.6436 52.7468 38.1764 52.919 38.6579C53.0913 39.1379 53.3339 39.5519 53.649 39.9002C53.9642 40.2477 54.3396 40.5148 54.7733 40.7038C55.2075 40.8913 55.6867 40.9869 56.2151 40.9887C56.6199 40.9887 57.007 40.9313 57.3728 40.8186C57.7386 40.7078 58.0756 40.5396 58.3804 40.3182C58.6855 40.0966 58.9519 39.8236 59.1764 39.4951C59.4018 39.1684 59.5778 38.7901 59.7006 38.3599C59.8238 37.93 59.8867 37.4491 59.8882 36.9197C59.8867 36.3408 59.8026 35.8138 59.6359 35.3363C59.4702 34.8569 59.2311 34.4438 58.9184 34.0964C58.6074 33.7471 58.2316 33.4775 57.7939 33.2885C57.3575 33.0989 56.8647 33.0015 56.3205 33ZM56.2854 33.8134C56.6259 33.8155 56.931 33.8747 57.2011 33.9935C57.4731 34.1098 57.7076 34.2719 57.9093 34.4765C58.1109 34.6826 58.2791 34.9199 58.412 35.187C58.5452 35.4545 58.6449 35.7411 58.7108 36.0428C58.7756 36.3466 58.809 36.6544 58.809 36.9658C58.809 37.407 58.7524 37.8216 58.6408 38.2075C58.5289 38.5935 58.3648 38.933 58.15 39.2273C57.9327 39.5216 57.6685 39.7528 57.3534 39.921C57.0389 40.0868 56.6788 40.1714 56.2739 40.1753C55.9491 40.1729 55.6539 40.1179 55.3879 40.0086C55.1218 39.8978 54.8867 39.7448 54.6816 39.5485C54.4762 39.3516 54.304 39.1204 54.1652 38.8588C54.0245 38.595 53.9185 38.3086 53.8466 37.9993C53.7763 37.69 53.7387 37.3685 53.7387 37.0345C53.7387 36.6965 53.7722 36.368 53.8407 36.0523C53.907 35.7372 54.0089 35.4432 54.1455 35.172C54.2809 34.9024 54.4506 34.6655 54.6541 34.4615C54.8573 34.2588 55.0965 34.1003 55.3685 33.9871C55.6402 33.8729 55.945 33.8155 56.2854 33.8134ZM61.2144 40.8394C61.3848 40.8626 61.6036 40.8834 61.8697 40.9026C62.136 40.92 62.4471 40.9295 62.7988 40.9313C63.4447 40.9313 63.9925 40.8739 64.4423 40.7557C64.8938 40.637 65.2539 40.4559 65.5219 40.2095C65.7291 40.026 65.8958 39.8062 66.0165 39.5485C66.1381 39.2902 66.2003 38.9943 66.2028 38.6619C66.2003 38.3755 66.1496 38.1214 66.0539 37.9013C65.9561 37.6821 65.8289 37.4907 65.6688 37.3343C65.5081 37.1756 65.334 37.0479 65.1423 36.9484C64.9526 36.8489 64.7609 36.7786 64.5714 36.7365V36.702C64.8472 36.6046 65.0836 36.4709 65.2833 36.3027C65.4825 36.1344 65.6369 35.9399 65.7448 35.7182C65.8523 35.4966 65.907 35.2597 65.9089 35.0053C65.907 34.7015 65.8467 34.4344 65.7291 34.2072C65.61 33.9797 65.4475 33.7908 65.2402 33.6418C65.0817 33.5117 64.8997 33.4048 64.6946 33.3227C64.4889 33.2406 64.2523 33.1795 63.9884 33.1395C63.7224 33.0989 63.4194 33.0797 63.0805 33.0797C62.8439 33.0797 62.6113 33.0876 62.3824 33.101C62.1533 33.1163 61.94 33.1356 61.7409 33.1618C61.5392 33.1872 61.3651 33.2177 61.2144 33.2519V40.8394ZM62.2355 33.9169C62.3158 33.8976 62.4274 33.8827 62.5719 33.8689C62.7166 33.8555 62.9067 33.8482 63.1393 33.8482C63.4857 33.846 63.7886 33.89 64.045 33.9761C64.3035 34.0619 64.5046 34.1974 64.6474 34.3849C64.7903 34.5699 64.8628 34.8108 64.8644 35.1088C64.8644 35.3592 64.7959 35.5827 64.6612 35.7793C64.5264 35.9741 64.3323 36.1289 64.0784 36.2413C63.8262 36.3561 63.5207 36.4135 63.163 36.4156H62.2355V33.9169ZM62.2355 37.1606H63.0805C63.3622 37.1606 63.6245 37.1893 63.8709 37.2467C64.1157 37.3041 64.3323 37.3936 64.5202 37.5139C64.7078 37.6342 64.8547 37.7889 64.9607 37.9779C65.066 38.1651 65.1208 38.3907 65.1226 38.6506C65.1208 38.929 65.0639 39.1665 64.9544 39.3589C64.845 39.5519 64.6946 39.7073 64.5046 39.8236C64.3126 39.9399 64.0978 40.0239 63.8552 40.0755C63.6129 40.1274 63.3581 40.154 63.0921 40.1521C62.9108 40.1521 62.7482 40.1482 62.6072 40.1427C62.4643 40.1347 62.3411 40.1234 62.2355 40.106V37.1606ZM72.8919 39.8196C72.7531 39.8844 72.5946 39.9418 72.4151 39.9897C72.2347 40.0373 72.0434 40.074 71.8395 40.1002C71.6345 40.1274 71.4272 40.1402 71.214 40.1402C70.574 40.1369 70.0285 40.0105 69.5786 39.7583C69.1287 39.5064 68.7842 39.1491 68.546 38.685C68.3074 38.2225 68.1877 37.6723 68.1858 37.0345C68.1877 36.5258 68.2618 36.0755 68.4072 35.6798C68.5535 35.2865 68.7629 34.9519 69.0327 34.6808C69.3044 34.4075 69.6292 34.2014 70.0072 34.0598C70.3861 33.9187 70.8066 33.8482 71.2728 33.8482C71.6035 33.85 71.9024 33.8802 72.1703 33.9401C72.4386 33.999 72.6674 34.0756 72.8569 34.1687L73.1148 33.3548C73.0251 33.3071 72.8944 33.2577 72.7237 33.2042C72.5539 33.1523 72.3447 33.1069 72.0981 33.0702C71.8492 33.0321 71.5619 33.0134 71.2371 33.0113C70.6212 33.0134 70.0619 33.1108 69.5567 33.3038C69.0521 33.4967 68.6179 33.7718 68.2521 34.1291C67.8863 34.4863 67.6046 34.9137 67.407 35.4087C67.2079 35.9054 67.1082 36.4596 67.106 37.0687C67.1097 37.705 67.2079 38.2665 67.4014 38.7553C67.5949 39.2426 67.8666 39.6514 68.2193 39.9824C68.5694 40.3142 68.9802 40.5646 69.4532 40.7344C69.925 40.9026 70.4408 40.9887 71.0026 40.9887C71.3253 40.9869 71.6207 40.9695 71.8908 40.9353C72.1603 40.8992 72.3995 40.8531 72.6027 40.7979C72.8062 40.7423 72.9685 40.6849 73.0916 40.6217L72.8919 39.8196ZM74.3822 33.1371V40.8626H75.4033V37.3209H75.7321C76.0645 37.3209 76.3502 37.363 76.5888 37.4452C76.8254 37.5291 77.0289 37.6454 77.1953 37.7984C77.3613 37.9492 77.5023 38.1309 77.6176 38.3413C77.7352 38.551 77.8371 38.784 77.9268 39.0398C78.0012 39.2447 78.0756 39.4529 78.1497 39.6648C78.2241 39.8788 78.3023 40.0868 78.3842 40.2916C78.4667 40.4941 78.5565 40.6849 78.6543 40.8626H79.746C79.6341 40.6336 79.5306 40.4003 79.4365 40.1656C79.3427 39.9283 79.253 39.688 79.163 39.4395C79.0732 39.1913 78.977 38.9369 78.8772 38.6732C78.7794 38.4115 78.6699 38.1691 78.5468 37.9459C78.4258 37.7221 78.2804 37.5233 78.1106 37.3496C77.9425 37.1756 77.7408 37.0305 77.5041 36.9157C77.2675 36.8009 76.9858 36.7228 76.6591 36.6791L79.6519 33.1371H78.4314L75.7203 36.5643H75.4033V33.1371H74.3822ZM80.743 33.1371V40.8626H81.8344L84.3108 37.0113C84.585 36.5857 84.8472 36.1536 85.1011 35.7164C85.3559 35.2789 85.5826 34.8475 85.778 34.4209L85.813 34.4329C85.7861 34.7556 85.7664 35.078 85.7526 35.4007C85.7389 35.7259 85.7314 36.0657 85.7254 36.419C85.7214 36.7747 85.7192 37.1581 85.7192 37.5728V40.8626H86.6818V33.1371H85.661L83.1024 37.1145C82.8148 37.5713 82.5488 38.0121 82.304 38.4362C82.0598 38.8588 81.841 39.2713 81.6468 39.6706L81.6115 39.6593C81.6353 39.3174 81.6531 38.9714 81.6662 38.6237C81.6803 38.2759 81.69 37.9187 81.6981 37.5505C81.7037 37.1813 81.7056 36.7954 81.7056 36.3927V33.1371H80.743ZM92.5502 36.4156H89.487V33.9743H92.7381V33.1371H88.4541V40.8626H92.9141V40.026H89.487V37.2409H92.5502V36.4156ZM158.911 33.1371V40.8626H159.944V37.2409H163.77V40.8626H164.803V33.1371H163.77V36.3695H159.944V33.1371H158.911ZM169.767 33C169.237 33.0015 168.748 33.0974 168.304 33.2885C167.858 33.4793 167.473 33.7526 167.144 34.1077C166.815 34.4649 166.561 34.8912 166.381 35.3879C166.199 35.8865 166.107 36.4422 166.105 37.0577C166.107 37.6436 166.193 38.1764 166.366 38.6579C166.538 39.1379 166.78 39.5519 167.095 39.9002C167.41 40.2477 167.786 40.5148 168.22 40.7038C168.654 40.8913 169.133 40.9869 169.661 40.9887C170.067 40.9887 170.454 40.9313 170.819 40.8186C171.185 40.7078 171.522 40.5396 171.827 40.3182C172.132 40.0966 172.398 39.8236 172.623 39.4951C172.848 39.1684 173.024 38.7901 173.147 38.3599C173.27 37.93 173.333 37.4491 173.335 36.9197C173.333 36.3408 173.249 35.8138 173.083 35.3363C172.917 34.8569 172.678 34.4438 172.365 34.0964C172.054 33.7471 171.678 33.4775 171.24 33.2885C170.804 33.0989 170.311 33.0015 169.767 33ZM169.732 33.8134C170.072 33.8155 170.378 33.8747 170.648 33.9935C170.919 34.1098 171.154 34.2719 171.356 34.4765C171.557 34.6826 171.725 34.9199 171.859 35.187C171.991 35.4545 172.091 35.7411 172.157 36.0428C172.222 36.3466 172.255 36.6544 172.255 36.9658C172.255 37.407 172.199 37.8216 172.087 38.2075C171.975 38.5935 171.811 38.933 171.596 39.2273C171.379 39.5216 171.115 39.7528 170.8 39.921C170.485 40.0868 170.125 40.1714 169.72 40.1753C169.395 40.1729 169.1 40.1179 168.834 40.0086C168.568 39.8978 168.333 39.7448 168.128 39.5485C167.922 39.3516 167.75 39.1204 167.611 38.8588C167.471 38.595 167.365 38.3086 167.293 37.9993C167.223 37.69 167.185 37.3685 167.185 37.0345C167.185 36.6965 167.218 36.368 167.287 36.0523C167.354 35.7372 167.455 35.4432 167.592 35.172C167.727 34.9024 167.897 34.6655 168.1 34.4615C168.304 34.2588 168.543 34.1003 168.815 33.9871C169.087 33.8729 169.391 33.8155 169.732 33.8134ZM174.027 33.1371L176.82 36.6907C176.513 36.7286 176.249 36.8009 176.024 36.9102C175.801 37.0192 175.608 37.1581 175.445 37.3303C175.285 37.5025 175.144 37.7028 175.023 37.93C174.904 38.1578 174.794 38.41 174.696 38.685C174.612 38.9256 174.53 39.1684 174.45 39.4129C174.371 39.6572 174.287 39.9002 174.199 40.1427C174.111 40.3851 174.01 40.6257 173.898 40.8626H174.942C175.029 40.6889 175.107 40.4959 175.182 40.2855C175.253 40.0755 175.324 39.8651 175.391 39.6514C175.457 39.4377 175.522 39.2368 175.588 39.0518C175.68 38.7861 175.78 38.5495 175.885 38.3352C175.993 38.123 176.12 37.9419 176.269 37.7911C176.418 37.64 176.601 37.5233 176.82 37.443C177.037 37.363 177.303 37.3209 177.618 37.3209H177.983V40.8626H178.968V37.3209H179.32C179.635 37.3209 179.901 37.363 180.12 37.443C180.337 37.5233 180.521 37.64 180.67 37.7911C180.819 37.9419 180.946 38.123 181.053 38.3352C181.159 38.5495 181.259 38.7861 181.351 39.0518C181.413 39.2368 181.476 39.4377 181.542 39.6514C181.607 39.8651 181.677 40.0755 181.75 40.2855C181.824 40.4959 181.907 40.6889 181.996 40.8626H183.04C182.933 40.6257 182.835 40.3851 182.751 40.1427C182.667 39.9002 182.585 39.6554 182.509 39.409C182.432 39.1626 182.351 38.918 182.266 38.6732C182.169 38.3965 182.059 38.1443 181.938 37.9147C181.816 37.6861 181.674 37.4852 181.509 37.3114C181.345 37.1398 181.149 37.0003 180.923 36.8928C180.696 36.7881 180.427 36.7188 180.119 36.6907L182.923 33.1371H181.738L179.285 36.5643H178.968V33.1371H177.983V36.5643H177.665L175.212 33.1371H174.027ZM184.061 33.1371V40.8626H185.153L187.629 37.0113C187.903 36.5857 188.165 36.1536 188.419 35.7164C188.674 35.2789 188.901 34.8475 189.096 34.4209L189.132 34.4329C189.104 34.7556 189.085 35.078 189.071 35.4007C189.057 35.7259 189.05 36.0657 189.044 36.419C189.04 36.7747 189.037 37.1581 189.037 37.5728V40.8626H190V33.1371H188.979L186.421 37.1145C186.133 37.5713 185.867 38.0121 185.622 38.4362C185.378 38.8588 185.159 39.2713 184.965 39.6706L184.93 39.6593C184.953 39.3174 184.971 38.9714 184.985 38.6237C184.999 38.2759 185.008 37.9187 185.016 37.5505C185.022 37.1813 185.024 36.7954 185.024 36.3927V33.1371H184.061Z" fill="#1F1C21"/>
</svg>
